<?xml version="1.0" encoding="UTF-8" standalone="no"?>
<!DOCTYPE svg PUBLIC "-//W3C//DTD SVG 1.1//EN"
 "http://www.w3.org/Graphics/SVG/1.1/DTD/svg11.dtd">
<!-- Generated by graphviz version 2.43.0 (0)
 -->
<!-- Title: %3 Pages: 1 -->
<svg width="970pt" height="165pt"
 viewBox="0.00 0.00 970.00 164.74" xmlns="http://www.w3.org/2000/svg" xmlns:xlink="http://www.w3.org/1999/xlink">
<g id="graph0" class="graph" transform="scale(1 1) rotate(0) translate(36 128.74)">
<title>%3</title>
<polygon fill="dimgray" stroke="transparent" points="-36,36 -36,-128.74 934,-128.74 934,36 -36,36"/>
<text text-anchor="middle" x="449" y="-77.54" font-family="Helvetica,sans-Serif" font-size="14.00">Sweep&#39;s Plan &amp; Progress</text>
<!-- start -->
<g id="node1" class="node">
<title>start</title>
</g>
<!-- 90327c30&#45;b6df&#45;4415&#45;8a96&#45;f038202ab05e -->
<g id="node3" class="node">
<title>90327c30&#45;b6df&#45;4415&#45;8a96&#45;f038202ab05e</title>
<ellipse fill="#0ee832" stroke="black" cx="187.5" cy="-26.87" rx="135.11" ry="26.74"/>
<text text-anchor="middle" x="187.5" y="-30.67" font-family="Helvetica,sans-Serif" font-size="14.00">✓ Create</text>
<text text-anchor="middle" x="187.5" y="-15.67" font-family="Helvetica,sans-Serif" font-size="14.00">server/helpers/helper1.js</text>
</g>
<!-- start&#45;&gt;90327c30&#45;b6df&#45;4415&#45;8a96&#45;f038202ab05e -->
<g id="edge3" class="edge">
<title>start&#45;&gt;90327c30&#45;b6df&#45;4415&#45;8a96&#45;f038202ab05e</title>
<path fill="none" stroke="black" d="M1.04,-26.87C4.12,-26.87 20.21,-26.87 41.75,-26.87"/>
<polygon fill="black" stroke="black" points="42,-30.37 52,-26.87 42,-23.37 42,-30.37"/>
<text text-anchor="middle" x="26.72" y="-33.67" font-family="Helvetica,sans-Serif" font-size="14.00">Start</text>
</g>
<!-- end -->
<g id="node2" class="node">
<title>end</title>
</g>
<!-- 851b827c&#45;b2af&#45;46de&#45;9636&#45;f33d67c1e3cb -->
<g id="node4" class="node">
<title>851b827c&#45;b2af&#45;46de&#45;9636&#45;f33d67c1e3cb</title>
<ellipse fill="yellow" stroke="black" cx="493.5" cy="-26.87" rx="135.11" ry="26.74"/>
<text text-anchor="middle" x="493.5" y="-30.67" font-family="Helvetica,sans-Serif" font-size="14.00">⋯ Create</text>
<text text-anchor="middle" x="493.5" y="-15.67" font-family="Helvetica,sans-Serif" font-size="14.00">server/helpers/helper2.js</text>
</g>
<!-- 90327c30&#45;b6df&#45;4415&#45;8a96&#45;f038202ab05e&#45;&gt;851b827c&#45;b2af&#45;46de&#45;9636&#45;f33d67c1e3cb -->
<g id="edge1" class="edge">
<title>90327c30&#45;b6df&#45;4415&#45;8a96&#45;f038202ab05e&#45;&gt;851b827c&#45;b2af&#45;46de&#45;9636&#45;f33d67c1e3cb</title>
<path fill="none" stroke="black" d="M322.57,-26.87C331.13,-26.87 339.69,-26.87 348.25,-26.87"/>
<polygon fill="black" stroke="black" points="348.29,-30.37 358.29,-26.87 348.29,-23.37 348.29,-30.37"/>
</g>
<!-- 8214b247&#45;f531&#45;472a&#45;85fb&#45;3d66ecce5f01 -->
<g id="node5" class="node">
<title>8214b247&#45;f531&#45;472a&#45;85fb&#45;3d66ecce5f01</title>
<ellipse fill="white" stroke="black" cx="751.5" cy="-26.87" rx="87.86" ry="26.74"/>
<text text-anchor="middle" x="751.5" y="-30.67" font-family="Helvetica,sans-Serif" font-size="14.00">▶ Modify</text>
<text text-anchor="middle" x="751.5" y="-15.67" font-family="Helvetica,sans-Serif" font-size="14.00">server/server.js</text>
</g>
<!-- 851b827c&#45;b2af&#45;46de&#45;9636&#45;f33d67c1e3cb&#45;&gt;8214b247&#45;f531&#45;472a&#45;85fb&#45;3d66ecce5f01 -->
<g id="edge2" class="edge">
<title>851b827c&#45;b2af&#45;46de&#45;9636&#45;f33d67c1e3cb&#45;&gt;8214b247&#45;f531&#45;472a&#45;85fb&#45;3d66ecce5f01</title>
<path fill="none" stroke="black" d="M628.8,-26.87C637.09,-26.87 645.38,-26.87 653.67,-26.87"/>
<polygon fill="black" stroke="black" points="653.79,-30.37 663.79,-26.87 653.79,-23.37 653.79,-30.37"/>
</g>
<!-- 8214b247&#45;f531&#45;472a&#45;85fb&#45;3d66ecce5f01&#45;&gt;end -->
<g id="edge4" class="edge">
<title>8214b247&#45;f531&#45;472a&#45;85fb&#45;3d66ecce5f01&#45;&gt;end</title>
<path fill="none" stroke="black" d="M839.38,-26.87C858.42,-26.87 876.06,-26.87 886.79,-26.87"/>
<polygon fill="black" stroke="black" points="886.8,-30.37 896.8,-26.87 886.8,-23.37 886.8,-30.37"/>
<text text-anchor="middle" x="868.09" y="-33.67" font-family="Helvetica,sans-Serif" font-size="14.00">Finish</text>
</g>
</g>
</svg>
